#Comment line ignore any data following # character 
#Hierarchical Translation and Rotation (.htr) file 
[Header]	
#Header keywords are followed by a single value 
FileType HTR		#Single word string
DataType HTRS		#Translation followed by rotation and scale data
FileVersion 1		#integer
NumSegments 64		#integer
NumFrames 3		#integer
DataFrameRate 30		#integer, data frame rate in this file
EulerRotationOrder ZYX
CalibrationUnits mm
RotationUnits Degrees
GlobalAxisofGravity Y
BoneLengthAxis Y
ScaleFactor 1.00
[SegmentNames&Hierarchy]
#CHILD	PARENT
Pinger_Root GLOBAL
Pelvis Pinger_Root
L_Hip Pelvis
R_Hip Pelvis
Rear_Leg01 Pelvis
Spine1 Pelvis
L_Leg01 L_Hip
L_Leg02 L_Leg01
L_Leg03 L_Leg02
L_Foot L_Leg03
L_Toe1_01 L_Foot
L_Toe2_01 L_Foot
L_Toe3_01 L_Foot
planeAlignerLeft L_Foot
L_Toe1_02 L_Toe1_01
L_Toe1_03 L_Toe1_02
L_Toe2_02 L_Toe2_01
L_Toe2_03 L_Toe2_02
L_Toe3_02 L_Toe3_01
L_Toe3_03 L_Toe3_02
planeLockWeightLeft planeAlignerLeft
R_Leg01 R_Hip
R_Leg02 R_Leg01
R_Leg03 R_Leg02
R_Foot R_Leg03
planeAlignerRight R_Foot
R_Toe1_01 R_Foot
R_Toe2_01 R_Foot
R_Toe3_01 R_Foot
planeLockWeightRight planeAlignerRight
R_Toe1_02 R_Toe1_01
R_Toe1_03 R_Toe1_02
R_Toe2_02 R_Toe2_01
R_Toe2_03 R_Toe2_02
R_Toe3_02 R_Toe3_01
R_Toe3_03 R_Toe3_02
Rear_Leg02 Rear_Leg01
Rear_Leg03 Rear_Leg02
Rear_Leg04 Rear_Leg03
Rear_Foot Rear_Leg04
planeAlignerCenter Rear_Foot
Rear_Toe1_01 Rear_Foot
Rear_Toe2_01 Rear_Foot
Rear_Toe3_01 Rear_Foot
planeLockWeightCenter planeAlignerCenter
Rear_Toe1_02 Rear_Toe1_01
Rear_Toe1_03 Rear_Toe1_02
Rear_Toe2_02 Rear_Toe2_01
Rear_Toe2_03 Rear_Toe2_02
Rear_Toe3_02 Rear_Toe3_01
Rear_Toe3_03 Rear_Toe3_02
Back_Bone Spine1
Head Spine1
Motor_Bone Back_Bone
Ping_Mechanism Back_Bone
BN_LookIK Head
bottomMouth Head
L_Mouth01 Head
L_mouthFront Head
mouthGun Head
R_Mouth01 Head
R_mouthFront Head
TopMouth Head
weapon_bone Head
[BasePosition]
#SegmentName Tx, Ty, Tz, Rx, Ry, Rz, BoneLength
Pinger_Root 0.000000 0.000000 0.000000 -90.000000 0.000000 0.000000 10.000000 
Pelvis 0.000000 0.000000 0.000000 0.000000 0.000000 0.000000 10.000000 
L_Hip 0.000000 0.000000 0.000000 0.000000 0.000000 0.000000 10.000000 
R_Hip 0.000000 0.000000 0.000000 0.000000 0.000000 0.000000 10.000000 
Rear_Leg01 0.000000 0.000000 0.000000 0.000000 0.000000 0.000000 10.000000 
Spine1 0.000000 0.000000 0.000000 0.000000 0.000000 0.000000 10.000000 
L_Leg01 0.000000 0.000000 0.000000 0.000000 0.000000 0.000000 10.000000 
L_Leg02 0.000000 0.000000 0.000000 0.000000 0.000000 0.000000 10.000000 
L_Leg03 0.000000 0.000000 0.000000 0.000000 0.000000 0.000000 10.000000 
L_Foot 0.000000 0.000000 0.000000 0.000000 0.000000 0.000000 10.000000 
L_Toe1_01 0.000000 0.000000 0.000000 0.000000 0.000000 0.000000 10.000000 
L_Toe2_01 0.000000 0.000000 0.000000 0.000000 0.000000 0.000000 10.000000 
L_Toe3_01 0.000000 0.000000 0.000000 0.000000 0.000000 0.000000 10.000000 
planeAlignerLeft 0.000000 0.000000 0.000000 0.000000 0.000000 0.000000 10.000000 
L_Toe1_02 0.000000 0.000000 0.000000 0.000000 0.000000 0.000000 10.000000 
L_Toe1_03 0.000000 0.000000 0.000000 0.000000 0.000000 0.000000 10.000000 
L_Toe2_02 0.000000 0.000000 0.000000 0.000000 0.000000 0.000000 10.000000 
L_Toe2_03 0.000000 0.000000 0.000000 0.000000 0.000000 0.000000 10.000000 
L_Toe3_02 0.000000 0.000000 0.000000 0.000000 0.000000 0.000000 10.000000 
L_Toe3_03 0.000000 0.000000 0.000000 0.000000 0.000000 0.000000 10.000000 
planeLockWeightLeft 0.000000 0.000000 0.000000 0.000000 0.000000 0.000000 10.000000 
R_Leg01 0.000000 0.000000 0.000000 0.000000 0.000000 0.000000 10.000000 
R_Leg02 0.000000 0.000000 0.000000 0.000000 0.000000 0.000000 10.000000 
R_Leg03 0.000000 0.000000 0.000000 0.000000 0.000000 0.000000 10.000000 
R_Foot 0.000000 0.000000 0.000000 0.000000 0.000000 0.000000 10.000000 
planeAlignerRight 0.000000 0.000000 0.000000 0.000000 0.000000 0.000000 10.000000 
R_Toe1_01 0.000000 0.000000 0.000000 0.000000 0.000000 0.000000 10.000000 
R_Toe2_01 0.000000 0.000000 0.000000 0.000000 0.000000 0.000000 10.000000 
R_Toe3_01 0.000000 0.000000 0.000000 0.000000 0.000000 0.000000 10.000000 
planeLockWeightRight 0.000000 0.000000 0.000000 0.000000 0.000000 0.000000 10.000000 
R_Toe1_02 0.000000 0.000000 0.000000 0.000000 0.000000 0.000000 10.000000 
R_Toe1_03 0.000000 0.000000 0.000000 0.000000 0.000000 0.000000 10.000000 
R_Toe2_02 0.000000 0.000000 0.000000 0.000000 0.000000 0.000000 10.000000 
R_Toe2_03 0.000000 0.000000 0.000000 0.000000 0.000000 0.000000 10.000000 
R_Toe3_02 0.000000 0.000000 0.000000 0.000000 0.000000 0.000000 10.000000 
R_Toe3_03 0.000000 0.000000 0.000000 0.000000 0.000000 0.000000 10.000000 
Rear_Leg02 0.000000 0.000000 0.000000 0.000000 0.000000 0.000000 10.000000 
Rear_Leg03 0.000000 0.000000 0.000000 0.000000 0.000000 0.000000 10.000000 
Rear_Leg04 0.000000 0.000000 0.000000 0.000000 0.000000 0.000000 10.000000 
Rear_Foot 0.000000 0.000000 0.000000 0.000000 0.000000 0.000000 10.000000 
planeAlignerCenter 0.000000 0.000000 0.000000 0.000000 0.000000 0.000000 10.000000 
Rear_Toe1_01 0.000000 0.000000 0.000000 0.000000 0.000000 0.000000 10.000000 
Rear_Toe2_01 0.000000 0.000000 0.000000 0.000000 0.000000 0.000000 10.000000 
Rear_Toe3_01 0.000000 0.000000 0.000000 0.000000 0.000000 0.000000 10.000000 
planeLockWeightCenter 0.000000 0.000000 0.000000 0.000000 0.000000 0.000000 10.000000 
Rear_Toe1_02 0.000000 0.000000 0.000000 0.000000 0.000000 0.000000 10.000000 
Rear_Toe1_03 0.000000 0.000000 0.000000 0.000000 0.000000 0.000000 10.000000 
Rear_Toe2_02 0.000000 0.000000 0.000000 0.000000 0.000000 0.000000 10.000000 
Rear_Toe2_03 0.000000 0.000000 0.000000 0.000000 0.000000 0.000000 10.000000 
Rear_Toe3_02 0.000000 0.000000 0.000000 0.000000 0.000000 0.000000 10.000000 
Rear_Toe3_03 0.000000 0.000000 0.000000 0.000000 0.000000 0.000000 10.000000 
Back_Bone 0.000000 0.000000 0.000000 0.000000 0.000000 0.000000 10.000000 
Head 0.000000 0.000000 0.000000 0.000000 0.000000 0.000000 10.000000 
Motor_Bone 0.000000 0.000000 0.000000 0.000000 0.000000 0.000000 10.000000 
Ping_Mechanism 0.000000 0.000000 0.000000 0.000000 0.000000 0.000000 10.000000 
BN_LookIK 0.000000 0.000000 0.000000 0.000000 0.000000 0.000000 10.000000 
bottomMouth 0.000000 0.000000 0.000000 0.000000 0.000000 0.000000 10.000000 
L_Mouth01 0.000000 0.000000 0.000000 0.000000 0.000000 0.000000 10.000000 
L_mouthFront 0.000000 0.000000 0.000000 0.000000 0.000000 0.000000 10.000000 
mouthGun 0.000000 0.000000 0.000000 0.000000 0.000000 0.000000 10.000000 
R_Mouth01 0.000000 0.000000 0.000000 0.000000 0.000000 0.000000 10.000000 
R_mouthFront 0.000000 0.000000 0.000000 0.000000 0.000000 0.000000 10.000000 
TopMouth 0.000000 0.000000 0.000000 0.000000 0.000000 0.000000 10.000000 
weapon_bone 0.000000 0.000000 0.000000 0.000000 0.000000 0.000000 10.000000 
#Beginning of Data. Separated by tabs
#Fr	Tx	Ty	Tz	Rx	Ry	Rz	SF
[Pinger_Root]
49 0.000000 0.000000 0.000000 -0.000075 -0.000000 -0.000020 0.000000
50 0.000000 0.000000 0.000000 -0.000075 -0.000000 -0.000020 0.000000
51 0.000000 0.000000 0.000000 -0.000075 -0.000000 -0.000020 0.000000
[Pelvis]
49 322.897461 872.617065 4225.505859 -102.394073 -84.082092 94.762405 4326.733398
50 266.183624 884.166260 4249.595215 -101.797424 -84.591187 94.170860 4348.754395
51 209.876007 893.605713 4279.757324 -101.077591 -85.099709 93.456177 4377.088379
[L_Hip]
49 5.766392 125.831482 872.656799 160.158691 -45.484905 122.312202 881.701050
50 5.766392 125.831482 872.656799 160.158691 -45.484905 122.312202 881.701050
51 5.766392 125.831482 872.656799 160.158691 -45.484905 122.312202 881.701050
[R_Hip]
49 5.765438 125.836372 -872.654907 38.087841 49.812687 125.703735 881.699829
50 5.765438 125.836372 -872.654907 38.087841 49.812687 125.703735 881.699829
51 5.765438 125.836372 -872.654907 38.087841 49.812687 125.703735 881.699829
[Rear_Leg01]
49 -192.298416 -925.602966 -0.001907 168.668518 -1.965919 -159.948898 945.367432
50 -192.298416 -925.602966 -0.001907 168.929840 -0.986349 -159.622681 945.367432
51 -192.298416 -925.602966 -0.001907 169.196716 -0.008293 -159.292084 945.367432
[Spine1]
49 290.604584 5.007505 0.000477 9.418210 3.823272 19.381504 290.647736
50 290.604584 5.007505 0.000477 8.757537 2.258513 19.299133 290.647736
51 290.604584 5.007505 0.000477 8.164451 1.004805 19.232759 290.647736
[L_Leg01]
49 761.932007 -0.002384 -0.069261 23.234735 -14.889257 -1.861842 761.932068
50 761.932007 -0.002384 -0.069261 23.051617 -15.197279 -3.089469 761.932068
51 761.932007 -0.002384 -0.069261 22.935329 -15.415450 -4.592231 761.932068
[L_Leg02]
49 1441.140503 -0.000954 -0.000715 2.991468 -0.190975 -132.617310 1441.140503
50 1441.140503 -0.000954 -0.000715 2.982249 -0.189530 -132.520065 1441.140503
51 1441.140503 -0.000954 -0.000715 2.943435 -0.187705 -132.147202 1441.140503
[L_Leg03]
49 1686.963989 -0.000715 -0.000954 -0.029895 0.014820 118.524872 1686.963989
50 1686.963989 -0.000715 -0.000954 -0.029898 0.014812 118.496117 1686.963989
51 1686.963989 -0.000715 -0.000954 -0.029902 0.014805 118.467323 1686.963989
[L_Foot]
49 3041.570068 -30.715107 11.297464 -1.949281 12.759289 53.352371 3041.746094
50 3041.570068 -30.715107 11.297464 -1.057179 12.816174 53.972961 3041.746094
51 3041.570068 -30.715107 11.297464 -0.164306 12.863626 54.594505 3041.746094
[L_Toe1_01]
49 -188.216690 -224.732346 -21.137953 94.044792 -5.433106 -176.210358 293.899567
50 -188.216690 -224.732346 -21.137953 94.033356 -5.600615 -175.982315 293.899567
51 -188.216690 -224.732346 -21.137953 94.021217 -5.768076 -175.754166 293.899567
[L_Toe2_01]
49 200.746536 -219.926590 148.838394 -92.082954 -25.503954 -48.342861 332.896027
50 200.746536 -219.926590 148.838394 -92.005234 -25.680906 -48.410229 332.896027
51 200.746536 -219.926590 148.838394 -91.786552 -25.819685 -48.839809 332.896027
[L_Toe3_01]
49 188.832520 -219.859131 -191.078659 -99.859398 16.257463 -64.189613 347.140900
50 188.832520 -219.859131 -191.078659 -99.783188 16.101986 -64.110344 347.140900
51 188.832520 -219.859131 -191.078659 -99.755325 15.827121 -64.409096 347.140900
[planeAlignerLeft]
49 0.812531 -811.448792 -0.314951 0.000000 -90.000000 -90.001900 811.449280
50 0.812531 -811.448792 -0.314951 0.000000 -90.000000 -90.001900 811.449280
51 0.812531 -811.448792 -0.314951 0.000000 -90.000000 -90.001900 811.449280
[L_Toe1_02]
49 413.761139 0.000477 0.000000 0.000203 -25.410625 -0.000182 413.761139
50 413.761139 0.000477 0.000000 0.000203 -25.410625 -0.000182 413.761139
51 413.761139 0.000477 0.000000 0.000203 -25.410625 -0.000182 413.761139
[L_Toe1_03]
49 464.317322 0.000358 -0.000089 0.004408 59.120781 0.004408 464.317322
50 464.317322 0.000358 -0.000089 0.004381 58.919754 0.004381 464.317322
51 464.317322 0.000358 -0.000089 0.004304 58.350517 0.004304 464.317322
[L_Toe2_02]
49 342.235809 -0.000477 0.000238 0.001185 -74.220665 0.001185 342.235809
50 342.235809 -0.000477 0.000238 0.001185 -74.202042 0.001185 342.235809
51 342.235809 -0.000477 0.000238 0.001185 -73.988747 0.001185 342.235809
[L_Toe2_03]
49 420.210846 -0.000715 0.000000 0.000000 89.452843 0.003502 420.210846
50 420.210846 -0.000715 0.000000 0.000000 89.653954 0.003500 420.210846
51 420.210846 -0.000715 0.000000 0.000000 89.849342 0.003495 420.210846
[L_Toe3_02]
49 329.270111 0.000954 0.000000 0.001177 -81.214569 0.001177 329.270111
50 329.270111 0.000954 0.000000 0.001177 -81.266617 0.001177 329.270111
51 329.270111 0.000954 0.000000 0.001177 -81.318703 0.001177 329.270111
[L_Toe3_03]
49 439.137451 -0.001907 0.000954 -179.997299 75.207924 -179.993774 439.137451
50 439.137451 -0.001907 0.000954 -179.997345 75.045677 -179.993820 439.137451
51 439.137451 -0.001907 0.000954 -179.997284 75.242386 -179.993759 439.137451
[planeLockWeightLeft]
49 -0.000954 0.000238 -0.000305 -0.011826 -0.004376 0.005620 0.001029
50 -0.000954 0.000238 -0.000305 -0.011826 -0.004376 0.005620 0.001029
51 -0.000954 0.000238 -0.000305 -0.011826 -0.004376 0.005620 0.001029
[R_Leg01]
49 761.455627 -0.001907 -0.000358 122.906097 -18.284094 31.332178 761.455688
50 761.455627 -0.001907 -0.000358 122.219994 -16.643089 31.639380 761.455688
51 761.455627 -0.001907 -0.000358 121.539322 -14.722074 32.206543 761.455688
[R_Leg02]
49 1441.140625 0.000000 -0.000238 -2.014483 -0.549258 -138.098038 1441.140625
50 1441.140625 0.000000 -0.000238 -1.936978 -0.501445 -135.776077 1441.140625
51 1441.140625 0.000000 -0.000238 -1.832478 -0.442245 -132.772110 1441.140625
[R_Leg03]
49 1686.963989 0.000954 0.001431 0.093288 -0.054756 135.958832 1686.963989
50 1686.963989 0.000954 0.001431 0.092628 -0.051989 135.373459 1686.963989
51 1686.963989 0.000954 0.001431 0.091939 -0.049229 134.788055 1686.963989
[R_Foot]
49 3041.560059 -30.531288 -11.204481 -3.232764 -24.359753 61.878586 3041.734131
50 3041.560059 -30.531288 -11.204481 -2.452494 -24.407221 60.914181 3041.734131
51 3041.560059 -30.531288 -11.204481 -1.716341 -24.460531 59.744637 3041.734131
[planeAlignerRight]
49 -0.635147 -812.270569 -0.364304 0.000000 -89.960434 -90.005180 812.270874
50 -0.635147 -812.270569 -0.364304 0.000000 -89.960434 -90.005180 812.270874
51 -0.635147 -812.270569 -0.364304 0.000000 -89.960434 -90.005180 812.270874
[R_Toe1_01]
49 -188.383347 -224.864899 21.052242 76.570496 2.065604 -174.009888 294.101532
50 -188.383347 -224.864899 21.052242 76.593269 1.562316 -173.674713 294.101532
51 -188.383347 -224.864899 21.052242 76.624039 1.204000 -173.478622 294.101532
[R_Toe2_01]
49 200.637817 -220.002121 -148.787384 -92.442833 35.854469 -58.687233 332.857574
50 200.637817 -220.002121 -148.787384 -92.349075 35.290310 -58.850391 332.857574
51 200.637817 -220.002121 -148.787384 -92.253975 34.726360 -59.013531 332.857574
[R_Toe3_01]
49 188.606735 -220.092957 191.126343 -74.247452 -6.955851 -71.440666 347.192566
50 188.606735 -220.092957 191.126343 -74.069214 -7.204039 -71.966957 347.192566
51 188.606735 -220.092957 191.126343 -73.888573 -7.450586 -72.494293 347.192566
[planeLockWeightRight]
49 -0.000477 0.000000 0.000000 -0.011823 -0.004379 -0.000027 0.000477
50 -0.000477 0.000000 0.000000 -0.011823 -0.004379 -0.000027 0.000477
51 -0.000477 0.000000 0.000000 -0.011823 -0.004379 -0.000027 0.000477
[R_Toe1_02]
49 413.762085 0.000477 -0.000119 0.001392 -24.909639 0.001392 413.762085
50 413.762085 0.000477 -0.000119 0.001392 -24.890394 0.001392 413.762085
51 413.762085 0.000477 -0.000119 0.001393 -24.871153 0.001393 413.762085
[R_Toe1_03]
49 464.317810 0.000000 0.001088 0.006203 68.186615 0.006203 464.317810
50 464.317810 0.000000 0.001088 0.006291 68.494850 0.006291 464.317810
51 464.317810 0.000000 0.001088 0.006340 68.664032 0.006340 464.317810
[R_Toe2_02]
49 342.234741 -0.000954 0.000238 0.001197 -67.272430 0.001197 342.234741
50 342.234741 -0.000954 0.000238 0.001197 -67.144058 0.001197 342.234741
51 342.234741 -0.000954 0.000238 0.001197 -67.147438 0.001197 342.234741
[R_Toe2_03]
49 420.210846 0.000715 -0.000268 0.008238 73.618240 0.008238 420.210846
50 420.210846 0.000715 -0.000268 0.008202 73.546242 0.008202 420.210846
51 420.210846 0.000715 -0.000268 0.008166 73.474258 0.008166 420.210846
[R_Toe3_02]
49 329.270355 -0.000477 -0.000954 0.001181 -77.634499 0.001181 329.270355
50 329.270355 -0.000477 -0.000954 0.001181 -77.036530 0.001181 329.270355
51 329.270355 -0.000477 -0.000954 0.001182 -76.438614 0.001182 329.270355
[R_Toe3_03]
49 439.137939 0.000238 0.001431 -179.960342 88.409348 -179.956833 439.137939
50 439.137939 0.000238 0.001431 0.000000 89.764267 0.003494 439.137939
51 439.137939 0.000238 0.001431 -0.039498 88.254936 -0.036001 439.137939
[Rear_Leg02]
49 1162.777710 -0.029802 0.005960 1.031492 -2.794861 -131.988510 1162.777710
50 1162.777710 -0.029802 0.005960 0.983187 -2.812775 -130.948700 1162.777710
51 1162.777710 -0.029802 0.005960 0.934563 -2.829809 -129.908859 1162.777710
[Rear_Leg03]
49 607.192505 -0.013351 -0.073195 0.010532 -0.005022 67.342690 607.192505
50 607.192505 -0.013351 -0.073195 0.010547 -0.004992 67.014191 607.192505
51 607.192505 -0.013351 -0.073195 0.010561 -0.004962 66.685661 607.192505
[Rear_Leg04]
49 995.874512 -0.020504 -0.011921 -0.039752 -0.019718 64.596405 995.874573
50 995.874512 -0.020504 -0.011921 -0.041724 -0.018669 63.844749 995.874573
51 995.874512 -0.020504 -0.011921 -0.043710 -0.017647 63.093052 995.874573
[Rear_Foot]
49 3096.176270 -0.067472 -0.041425 -161.052429 82.359764 31.696262 3096.176270
50 3096.176270 -0.067472 -0.041425 -158.756241 83.157074 34.113735 3096.176270
51 3096.176270 -0.067472 -0.041425 -155.845993 83.939705 37.145058 3096.176270
[planeAlignerCenter]
49 0.350077 0.966311 -838.790894 0.000009 0.000003 -179.999985 838.791565
50 0.350077 0.966311 -838.790894 0.000009 0.000003 -179.999985 838.791565
51 0.350077 0.966311 -838.790894 0.000009 0.000003 -179.999985 838.791565
[Rear_Toe1_01]
49 0.653352 83.966492 -371.173737 0.288091 41.914127 90.413170 380.553192
50 0.653352 83.966492 -371.173737 0.288091 41.914127 90.413170 380.553192
51 0.653352 83.966492 -371.173737 0.288091 41.914127 90.413170 380.553192
[Rear_Toe2_01]
49 178.200760 -294.826019 -362.060547 -7.196267 34.406261 -66.271294 499.765686
50 178.200760 -294.826019 -362.060547 -7.196267 34.406261 -66.271294 499.765686
51 178.200760 -294.826019 -362.060547 -7.196267 34.406261 -66.271294 499.765686
[Rear_Toe3_01]
49 -153.359680 -308.780914 -362.060852 3.289418 33.518005 -112.540970 499.952881
50 -153.359680 -308.780914 -362.060852 3.289418 33.518005 -112.540970 499.952881
51 -153.359680 -308.780914 -362.060852 3.289418 33.518005 -112.540970 499.952881
[planeLockWeightCenter]
49 -0.000062 0.000238 0.000000 -0.011814 -0.004373 -0.000015 0.000246
50 -0.000062 0.000238 0.000000 -0.011814 -0.004373 -0.000015 0.000246
51 -0.000062 0.000238 0.000000 -0.011814 -0.004373 -0.000015 0.000246
[Rear_Toe1_02]
49 379.707825 0.194073 0.000477 -0.000242 -31.676744 0.006934 379.707855
50 379.707825 0.194073 0.000477 -0.000242 -31.676744 0.006934 379.707855
51 379.707825 0.194073 0.000477 -0.000242 -31.676744 0.006934 379.707855
[Rear_Toe1_03]
49 500.129700 0.165701 0.000119 -0.000103 51.902466 0.007295 500.129761
50 500.129700 0.165701 0.000119 -0.000103 51.902466 0.007295 500.129761
51 500.129700 0.165701 0.000119 -0.000103 51.902485 0.007295 500.129761
[Rear_Toe2_02]
49 340.494507 0.000238 -0.000954 0.001192 -69.854523 0.001192 340.494507
50 340.494507 0.000238 -0.000954 0.001192 -69.854523 0.001192 340.494507
51 340.494507 0.000238 -0.000954 0.001192 -69.854523 0.001192 340.494507
[Rear_Toe2_03]
49 433.103577 0.000000 0.000238 0.006696 69.810326 0.006696 433.103546
50 433.103577 0.000000 0.000238 0.006696 69.810326 0.006696 433.103546
51 433.103577 0.000000 0.000238 0.006696 69.810326 0.006696 433.103546
[Rear_Toe3_02]
49 340.494141 -0.000358 -0.000477 0.008288 -67.274704 -0.009460 340.494171
50 340.494141 -0.000358 -0.000477 0.008288 -67.274704 -0.009460 340.494171
51 340.494141 -0.000358 -0.000477 0.008288 -67.274704 -0.009460 340.494171
[Rear_Toe3_03]
49 433.103577 0.001431 -0.000238 -0.000972 65.958984 -0.004547 433.103546
50 433.103577 0.001431 -0.000238 -0.000972 65.958984 -0.004547 433.103546
51 433.103577 0.001431 -0.000238 -0.000972 65.958984 -0.004547 433.103546
[Back_Bone]
49 1312.175781 -701.934692 0.000954 0.000023 -0.000007 -85.606667 1488.125488
50 1312.175781 -701.934692 0.000954 0.000023 -0.000007 -85.606667 1488.125488
51 1312.175781 -701.934692 0.000954 0.000023 -0.000007 -85.606667 1488.125488
[Head]
49 1406.159424 809.709290 0.001431 -0.009404 -1.488584 7.772713 1622.625488
50 1406.159424 809.709290 0.001431 -0.008948 -1.487995 7.772500 1622.625488
51 1406.159424 809.709290 0.001431 -0.008492 -1.487406 7.772288 1622.625488
[Motor_Bone]
49 1158.364380 -417.834747 0.000477 -0.000105 0.000046 -105.985291 1231.419434
50 1158.364380 -417.834747 0.000477 -0.000105 0.000046 -105.985291 1231.419434
51 1158.364380 -417.834747 0.000477 -0.000105 0.000046 -105.985291 1231.419434
[Ping_Mechanism]
49 1215.237793 -433.297150 0.000954 0.000103 -0.000053 82.120995 1290.174072
50 1215.237793 -433.297150 0.000954 0.000103 -0.000053 82.120995 1290.174072
51 1215.237793 -433.297150 0.000954 0.000103 -0.000053 82.120995 1290.174072
[BN_LookIK]
49 193.241119 1380.371704 -0.002861 0.000000 89.965736 -31.038179 1393.832153
50 193.241119 1380.371704 -0.002861 0.000000 89.965736 -31.038179 1393.832153
51 193.241119 1380.371704 -0.002861 0.000000 89.965736 -31.038179 1393.832153
[bottomMouth]
49 -435.092926 615.759399 -0.000954 -0.000022 0.000016 73.527184 753.966492
50 -435.092926 615.759399 -0.000954 -0.000022 0.000016 73.527184 753.966492
51 -435.092926 615.759399 -0.000954 -0.000022 0.000016 73.527184 753.966492
[L_Mouth01]
49 554.440979 7.658243 838.222046 150.204178 23.759130 109.605339 1005.027161
50 554.440979 7.658243 838.222046 150.204178 23.759130 109.605339 1005.027161
51 554.440979 7.658243 838.222046 150.204178 23.759130 109.605339 1005.027161
[L_mouthFront]
49 551.629089 934.514771 339.150421 0.000081 2.804060 79.119301 1136.941284
50 551.629089 934.514771 339.150421 0.000081 2.804060 79.119301 1136.941284
51 551.629089 934.514771 339.150421 0.000081 2.804060 79.119301 1136.941284
[mouthGun]
49 55.332661 1627.420898 0.000000 0.000023 0.000009 -11.038128 1628.361328
50 55.332661 1627.420898 0.000000 0.000023 0.000009 -11.038128 1628.361328
51 55.332661 1627.420898 0.000000 0.000023 0.000009 -11.038128 1628.361328
[R_Mouth01]
49 554.442383 7.659197 -838.223938 29.795891 -23.759109 109.605331 1005.029541
50 554.442383 7.659197 -838.223938 29.795891 -23.759109 109.605331 1005.029541
51 554.442383 7.659197 -838.223938 29.795891 -23.759109 109.605331 1005.029541
[R_mouthFront]
49 551.629089 934.514282 -339.151367 0.000029 -2.803930 79.119133 1136.941162
50 551.629089 934.514282 -339.151367 0.000029 -2.803930 79.119133 1136.941162
51 551.629089 934.514282 -339.151367 0.000029 -2.803930 79.119133 1136.941162
[TopMouth]
49 461.269867 -56.106091 -0.008583 -0.000059 -0.000268 92.025169 464.669525
50 461.269867 -56.106091 -0.008583 -0.000059 -0.000268 92.025169 464.669525
51 461.269867 -56.106091 -0.008583 -0.000059 -0.000268 92.025169 464.669525
[weapon_bone]
49 -987.239868 1448.372803 0.001431 0.000000 89.965736 -31.038221 1752.833740
50 -987.239868 1448.372803 0.001431 0.000000 89.965736 -31.038221 1752.833740
51 -987.239868 1448.372803 0.001431 0.000000 89.965736 -31.038221 1752.833740
